<?xml version="1.0" encoding="iso-8859-1"?>
<!-- Generator: Adobe Illustrator 16.0.0, SVG Export Plug-In . SVG Version: 6.00 Build 0)  -->
<!DOCTYPE svg PUBLIC "-//W3C//DTD SVG 1.1//EN" "http://www.w3.org/Graphics/SVG/1.1/DTD/svg11.dtd">
<svg version="1.1" id="Capa_1" xmlns="http://www.w3.org/2000/svg" xmlns:xlink="http://www.w3.org/1999/xlink" x="0px" y="0px"
	 width="31.406px" height="31.405px" viewBox="0 0 31.406 31.405" style="enable-background:new 0 0 31.406 31.405;"
	 xml:space="preserve">
<g>
	<g>
		<g>
			<path d="M2.994,7.452c1.711,1.197,3.498,0.305,5.794,1.271C8.997,8.81,9.204,8.604,9.117,8.396
				C8.044,5.85,9.258,3.929,7.375,2.046C5.933,0.603,3.542,0.688,2.211,2.297C0.9,3.881,1.312,6.273,2.994,7.452z M3.604,3.211
				c0.72-0.72,1.887-0.72,2.607,0c0.72,0.72,0.719,1.887,0,2.606c-0.72,0.72-1.887,0.72-2.607,0
				C2.884,5.098,2.883,3.931,3.604,3.211z"/>
		</g>
		<g>
			<path d="M22.619,8.723c2.297-0.966,4.084-0.075,5.795-1.271c1.683-1.179,2.095-3.571,0.783-5.154
				c-1.332-1.609-3.721-1.694-5.164-0.251c-1.883,1.883-0.668,3.804-1.742,6.35C22.205,8.604,22.413,8.81,22.619,8.723z
				 M25.197,3.211c0.721-0.72,1.888-0.72,2.607,0c0.721,0.72,0.719,1.887,0,2.606c-0.72,0.72-1.887,0.72-2.607,0
				C24.478,5.098,24.478,3.931,25.197,3.211z"/>
		</g>
		<g>
			<path d="M8.789,22.682c-2.296,0.965-4.083,0.074-5.794,1.271c-1.683,1.179-2.095,3.571-0.784,5.153
				c1.332,1.609,3.722,1.695,5.165,0.252c1.883-1.883,0.668-3.805,1.742-6.35C9.204,22.801,8.997,22.594,8.789,22.682z
				 M6.211,28.193c-0.72,0.72-1.887,0.72-2.607,0c-0.72-0.721-0.719-1.887,0-2.606c0.72-0.72,1.887-0.72,2.607,0
				C6.93,26.307,6.93,27.473,6.211,28.193z"/>
		</g>
		<g>
			<path d="M28.414,23.952c-1.711-1.197-3.498-0.306-5.795-1.271c-0.207-0.088-0.414,0.119-0.328,0.326
				c1.072,2.547-0.141,4.467,1.742,6.351c1.443,1.442,3.832,1.358,5.164-0.251C30.508,27.523,30.096,25.131,28.414,23.952z
				 M27.804,28.193c-0.72,0.72-1.887,0.72-2.607,0c-0.719-0.721-0.719-1.887,0-2.606c0.721-0.72,1.888-0.72,2.607,0
				C28.523,26.307,28.525,27.473,27.804,28.193z"/>
		</g>
		<g>
			<path d="M29.347,7.958c-0.121,0.104-0.229,0.221-0.359,0.313c-0.465,0.324-0.926,0.523-1.385,0.652
				c1,1.757,1.619,3.755,1.758,5.884h-4.928c-0.072-1.971-0.293-3.792-0.578-5.427c-0.276,0.063-0.557,0.142-0.848,0.265
				c-0.154,0.065-0.318,0.099-0.486,0.099l0,0c-0.258,0-0.498-0.087-0.705-0.229c0.283,1.587,0.506,3.368,0.582,5.293h-5.694V9.97
				c1.838-0.071,3.521-0.277,5.001-0.533c-0.084-0.072-0.16-0.154-0.225-0.249c-0.231-0.347-0.274-0.786-0.115-1.173
				c0.387-0.916,0.426-1.732,0.467-2.596c0.055-1.137,0.122-2.41,1.105-3.639C20.769,0.649,18.312,0,15.704,0l0,0
				c-2.609,0-5.067,0.646-7.232,1.78c0.982,1.229,1.05,2.501,1.104,3.639c0.041,0.864,0.08,1.68,0.463,2.589
				c0.163,0.394,0.12,0.833-0.112,1.18C9.693,9.537,9.304,9.745,8.887,9.745c-0.168,0-0.332-0.033-0.488-0.099
				C8.109,9.522,7.831,9.443,7.553,9.38c-0.286,1.636-0.507,3.457-0.578,5.428h-4.93c0.131-2.018,0.686-3.922,1.601-5.61
				c0.004-0.007,0.006-0.014,0.01-0.021C3.704,9.091,3.76,9.01,3.81,8.926C3.35,8.795,2.886,8.597,2.421,8.271
				c-0.128-0.09-0.234-0.204-0.352-0.306c-1.306,2.286-2.068,4.92-2.068,7.737l0,0c0,2.817,0.755,5.456,2.059,7.744
				c0.121-0.104,0.229-0.222,0.361-0.313c0.463-0.324,0.925-0.522,1.384-0.652c-0.969-1.697-1.583-3.622-1.748-5.672h4.904
				c0.029,1.677,0.18,3.434,0.483,5.238c0.312-0.064,0.627-0.148,0.957-0.287c0.345-0.146,0.727-0.103,1.05,0.062
				c-0.289-1.724-0.43-3.406-0.456-5.015h5.708v4.629c-1.843,0.072-3.532,0.277-5.016,0.535c0.087,0.072,0.173,0.148,0.239,0.246
				c0.232,0.348,0.275,0.786,0.115,1.174c-0.386,0.916-0.425,1.731-0.466,2.596c-0.055,1.137-0.122,2.41-1.105,3.64
				c2.167,1.13,4.625,1.779,7.233,1.779l0,0c2.608,0,5.067-0.646,7.233-1.78c-0.983-1.23-1.051-2.502-1.105-3.639
				c-0.033-0.702-0.076-1.374-0.292-2.087c-0.38,1.593-0.903,3.209-1.597,4.827c-1.031,0.336-2.119,0.547-3.242,0.629v-5.92
				c1.545,0.025,3.168,0.162,4.834,0.449c-0.049-0.16-0.098-0.32-0.168-0.486c-0.162-0.395-0.119-0.834,0.113-1.18
				c0.086-0.132,0.2-0.238,0.326-0.324c-1.763-0.305-3.478-0.451-5.104-0.479v-4.607h5.714c-0.026,1.606-0.165,3.287-0.455,5.012
				c0.321-0.162,0.702-0.203,1.045-0.059c0.33,0.139,0.646,0.223,0.958,0.287c0.303-1.807,0.453-3.562,0.48-5.24h4.903
				c-0.153,1.916-0.694,3.722-1.558,5.334c-0.016,0.028-0.027,0.06-0.042,0.088c-0.048,0.086-0.104,0.166-0.153,0.25
				c0.46,0.13,0.924,0.328,1.389,0.654c0.129,0.09,0.234,0.205,0.353,0.307c1.308-2.286,2.067-4.92,2.067-7.736l0,0
				C31.406,12.885,30.652,10.246,29.347,7.958z M16.704,2.05c1.122,0.082,2.206,0.292,3.237,0.627
				c0.289,0.729,0.904,2.419,1.451,4.764c-1.386,0.238-2.972,0.429-4.688,0.501V2.05z M14.704,29.354
				c-1.123-0.082-2.208-0.291-3.241-0.629c-0.679-1.586-1.197-3.174-1.575-4.738c1.417-0.249,3.045-0.449,4.815-0.524v5.892H14.704z
				 M14.704,14.807H9.017c0.076-1.923,0.297-3.705,0.58-5.292c1.766,0.306,3.478,0.443,5.107,0.47V14.807z M14.704,7.969
				c-1.505-0.024-3.085-0.155-4.706-0.428c0.552-2.396,1.178-4.124,1.47-4.864c1.031-0.336,2.115-0.545,3.236-0.627V7.969z"/>
		</g>
	</g>
</g>
<g>
</g>
<g>
</g>
<g>
</g>
<g>
</g>
<g>
</g>
<g>
</g>
<g>
</g>
<g>
</g>
<g>
</g>
<g>
</g>
<g>
</g>
<g>
</g>
<g>
</g>
<g>
</g>
<g>
</g>
</svg>
