<?xml version="1.0" encoding="iso-8859-1"?>
<!-- Generator: Adobe Illustrator 16.0.0, SVG Export Plug-In . SVG Version: 6.00 Build 0)  -->
<!DOCTYPE svg PUBLIC "-//W3C//DTD SVG 1.1//EN" "http://www.w3.org/Graphics/SVG/1.1/DTD/svg11.dtd">
<svg version="1.1" id="Capa_1" xmlns="http://www.w3.org/2000/svg" xmlns:xlink="http://www.w3.org/1999/xlink" x="0px" y="0px"
	 width="30.482px" height="30.482px" viewBox="0 0 30.482 30.482" style="enable-background:new 0 0 30.482 30.482;"
	 xml:space="preserve">
<g>
	<g>
		<path d="M28.112,1.547c-2.945-2.437-7.396-1.672-9.588,1.46c-2.229,3.181-0.567,6.506-2.366,10.78
			c-0.162,0.385,0.222,0.771,0.607,0.61c4.737-1.996,8.312,0.263,11.814-3.24C31.263,8.474,31.108,4.025,28.112,1.547z
			 M26.414,8.991c-1.34,1.339-3.511,1.339-4.85,0c-1.34-1.339-1.34-3.51,0-4.85c1.339-1.339,3.511-1.34,4.85,0
			C27.752,5.479,27.751,7.65,26.414,8.991z"/>
		<path d="M27.544,13.173c-0.549,0.317-1.102,0.538-1.655,0.702c0.011,0.047,0.024,0.093,0.034,0.14
			c-0.917,0.424-1.787,0.889-2.608,1.387c-0.261-0.372-0.538-0.707-0.809-1.059c-0.081,0.004-0.163,0.009-0.244,0.013
			c-0.627,0.03-1.264,0.062-1.915,0.133c0.501,0.598,0.991,1.227,1.461,1.891c-1.344,0.938-2.548,1.953-3.617,2.986l-2.901-2.9
			l1.09-1.091c-0.397-0.058-0.759-0.272-0.987-0.616c-0.138-0.207-0.214-0.443-0.232-0.684l-1.131,1.131l-3.046-3.046
			c1.136-1.227,2.084-2.442,2.864-3.554c0.71,0.493,1.453,1.053,2.208,1.668c0.077-0.674,0.11-1.333,0.143-1.982
			c0.003-0.068,0.007-0.136,0.01-0.205c-0.46-0.35-0.916-0.685-1.358-0.989c0.713-1.14,1.206-2.076,1.492-2.66
			c0.126,0.025,0.248,0.07,0.373,0.099c0.173-0.554,0.42-1.107,0.752-1.656C12.83,1.689,7.701,2.891,4.078,6.513l0,0
			c-2.661,2.661-4.013,6.137-4.077,9.631C0,16.23,0,16.57,0.001,16.656c0.063,3.495,1.416,6.97,4.077,9.631l0,0
			c5.452,5.452,14.322,5.452,19.772,0l0,0c2.661-2.661,4.015-6.136,4.077-9.631c0.002-0.085,0.002-0.426,0-0.512
			C27.91,15.146,27.774,14.15,27.544,13.173z M14.031,17.727l2.914,2.914c-1.167,1.261-2.141,2.511-2.932,3.646
			c-1.321-0.93-2.512-1.936-3.577-2.968L14.031,17.727z M12.771,16.466L9.19,20.047c-1.164-1.259-2.146-2.52-2.967-3.695
			c1.305-0.919,2.469-1.912,3.512-2.92L12.771,16.466z M14.443,4.227c-0.267,0.502-0.63,1.145-1.095,1.886
			c-0.99-0.614-1.877-1.098-2.608-1.468C11.949,4.315,13.198,4.179,14.443,4.227z M8.432,5.532c0.641,0.277,2.092,0.953,3.913,2.085
			c-0.723,1.022-1.601,2.141-2.637,3.268l-3.71-3.71C6.756,6.52,7.571,5.97,8.432,5.532z M4.739,8.435l3.727,3.726
			c-0.962,0.932-2.04,1.845-3.232,2.693c-1.161-1.855-1.855-3.338-2.137-3.988C3.534,10.005,4.085,9.191,4.739,8.435z M2.208,13.174
			c0.379,0.748,0.878,1.66,1.512,2.678c-0.616,0.375-1.258,0.73-1.928,1.062C1.787,16.779,1.647,15.147,2.208,13.174z M2.277,19.896
			c-0.001-0.006-0.004-0.013-0.007-0.021c-0.107-0.36-0.194-0.728-0.267-1.096c0.949-0.438,1.849-0.921,2.698-1.439
			c0.879,1.271,1.939,2.633,3.205,3.992l-3.104,3.104C3.614,23.083,2.764,21.535,2.277,19.896z M11.587,28.363
			c-1.987-0.392-3.891-1.288-5.519-2.674l3.088-3.087c1.146,1.106,2.432,2.188,3.868,3.188C12.34,26.89,11.866,27.792,11.587,28.363
			z M13.487,28.574c0.257-0.484,0.602-1.097,1.043-1.803c0.819,0.499,1.68,0.969,2.587,1.401
			C15.929,28.489,14.706,28.622,13.487,28.574z M19.494,27.271c-1.427-0.572-2.752-1.245-3.975-1.993
			c0.735-1.049,1.635-2.2,2.702-3.362l3.71,3.71C21.172,26.282,20.356,26.833,19.494,27.271z M23.19,24.367l-3.728-3.728
			c0.989-0.958,2.1-1.896,3.331-2.765c0.766,1.246,1.457,2.597,2.041,4.055C24.397,22.792,23.845,23.609,23.19,24.367z
			 M25.738,19.552c-0.445-0.933-0.932-1.815-1.446-2.654c0.591-0.357,1.205-0.695,1.844-1.01
			C26.141,16.023,26.281,17.527,25.738,19.552z"/>
	</g>
</g>
<g>
</g>
<g>
</g>
<g>
</g>
<g>
</g>
<g>
</g>
<g>
</g>
<g>
</g>
<g>
</g>
<g>
</g>
<g>
</g>
<g>
</g>
<g>
</g>
<g>
</g>
<g>
</g>
<g>
</g>
</svg>
