<svg id="Capa_1" enable-background="new 0 0 512 512" height="512" viewBox="0 0 512 512" width="512" xmlns="http://www.w3.org/2000/svg"><g><g><g><g><g><g><g><g><circle cx="256" cy="256" fill="#64e1dc" r="256"/></g></g></g></g></g></g></g><path d="m512 256c0-3.223-.06-6.432-.178-9.626l-177.264-177.265-142.895 17.867-65.141 31.486 188.625 188.625-143.281 129.793 74.959 74.959c3.045.107 6.104.161 9.175.161 141.385 0 256-114.615 256-256z" fill="#00c8c8"/><g><path d="m231.5 84.109h49v65.484h-49z" fill="#9196aa"/></g><g><path d="m255.844 84.109h24.656v65.484h-24.656z" fill="#7e8596"/></g><g><path d="m212.018 128.091h87.964v76.235h-87.964z" fill="#fff"/></g><g><path d="m255.844 128.091h44.138v76.235h-44.138z" fill="#e9edf5"/></g><g><path d="m147.735 139.675-21.213-21.213 49.353-49.353h158.683v30h-146.257z" fill="#fff"/></g><g><path d="m255.844 69.109h78.713v30h-78.713z" fill="#e9edf5"/></g><g><path d="m320.368 444.181h-128.736c-16.81 0-30.437-13.627-30.437-30.437v-217.098c0-16.81 13.627-30.437 30.437-30.437h128.735c16.81 0 30.438 13.627 30.438 30.437v217.097c0 16.811-13.627 30.438-30.437 30.438z" fill="#7584f2"/></g><g><path d="m320.368 166.209h-64.523v277.972h64.523c16.81 0 30.438-13.627 30.438-30.437v-217.098c-.001-16.81-13.628-30.437-30.438-30.437z" fill="#606aea"/></g><g><circle cx="256" cy="301.831" fill="#fff" r="69.812"/></g><g><path d="m256 232.018c-.052 0-.104.004-.156.004v139.617c.052 0 .104.004.156.004 38.556 0 69.813-31.256 69.813-69.812s-31.257-69.813-69.813-69.813z" fill="#e9edf5"/></g><g><path d="m301.285 321.378v-39.095h-25.738v-25.737h-39.094v25.737h-25.738v39.095h25.738v25.738h39.094v-25.738z" fill="#fe6a16"/><path d="m301.285 321.378v-39.095h-25.738v-25.737h-19.703v90.57h19.703v-25.738z" fill="#f24500"/></g></g></svg>