<?xml version="1.0" encoding="iso-8859-1"?>
<!-- Generator: Adobe Illustrator 16.0.0, SVG Export Plug-In . SVG Version: 6.00 Build 0)  -->
<!DOCTYPE svg PUBLIC "-//W3C//DTD SVG 1.1//EN" "http://www.w3.org/Graphics/SVG/1.1/DTD/svg11.dtd">
<svg version="1.1" id="Capa_1" xmlns="http://www.w3.org/2000/svg" xmlns:xlink="http://www.w3.org/1999/xlink" x="0px" y="0px"
	 width="31.357px" height="31.357px" viewBox="0 0 31.357 31.357" style="enable-background:new 0 0 31.357 31.357;"
	 xml:space="preserve">
<g>
	<g>
		<path d="M15.679,0C7.033,0,0.001,7.033,0.001,15.678c0,8.646,7.032,15.68,15.678,15.68c8.644,0,15.677-7.033,15.677-15.68
			C31.356,7.033,24.323,0,15.679,0z M15.679,28.861c-7.27,0-13.183-5.913-13.183-13.184c0-7.268,5.913-13.183,13.183-13.183
			c7.269,0,13.182,5.915,13.182,13.183C28.861,22.948,22.948,28.861,15.679,28.861z"/>
		<path d="M19.243,12.368V7.33c0-0.868-0.703-1.57-1.57-1.57h-3.396c-0.867,0-1.569,0.703-1.569,1.57v5.038h-5.04
			c-0.867,0-1.569,0.703-1.569,1.57v3.468c0,0.867,0.702,1.57,1.569,1.57h5.039v5.037c0,0.867,0.702,1.57,1.569,1.57h3.397
			c0.866,0,1.569-0.703,1.569-1.57v-5.037h5.038c0.867,0,1.57-0.703,1.57-1.57v-3.468c0-0.868-0.703-1.57-1.57-1.57H19.243z"/>
	</g>
</g>
<g>
</g>
<g>
</g>
<g>
</g>
<g>
</g>
<g>
</g>
<g>
</g>
<g>
</g>
<g>
</g>
<g>
</g>
<g>
</g>
<g>
</g>
<g>
</g>
<g>
</g>
<g>
</g>
<g>
</g>
</svg>
